<?xml version="1.0" encoding="UTF-8" standalone="no"?>
<svg width="99px" height="65px" viewBox="0 0 99 65" version="1.1" xmlns="http://www.w3.org/2000/svg" xmlns:xlink="http://www.w3.org/1999/xlink" xmlns:sketch="http://www.bohemiancoding.com/sketch/ns">
    <!-- Generator: Sketch 3.0.4 (8054) - http://www.bohemiancoding.com/sketch -->
    <title>Slice 2</title>
    <desc>Created with Sketch.</desc>
    <defs></defs>
    <g id="Page-1" stroke="none" stroke-width="1" fill="none" fill-rule="evenodd" sketch:type="MSPage">
        <g id="arrow621" sketch:type="MSLayerGroup" transform="translate(50.000000, 32.000000) rotate(-90.000000) translate(-50.000000, -32.000000) translate(18.000000, -17.000000)" fill="#FFFFFF">
            <path d="M16.384,97.488 L63.457,50.416 C64.207,49.666 64.207,48.338 63.457,47.588 L16.382,0.512 C16.007,0.137 15.498,-0.074 14.968,-0.074 C14.438,-0.074 13.929,0.137 13.554,0.512 L0.567,13.499 C0.176,13.89 -0.019,14.401 -0.019,14.913 C-0.019,15.425 0.176,15.936 0.567,16.327 L33.241,49.001 L0.568,81.676 C-0.183,82.426 -0.182,83.754 0.568,84.504 L13.555,97.488 C14.337,98.27 15.603,98.27 16.384,97.488 L16.384,97.488 Z" id="Shape" sketch:type="MSShapeGroup"></path>
        </g>
    </g>
</svg>