<?xml version="1.0" encoding="UTF-8" standalone="no"?>
<svg width="60px" height="60px" viewBox="0 0 60 60" version="1.1" xmlns="http://www.w3.org/2000/svg" xmlns:xlink="http://www.w3.org/1999/xlink" xmlns:sketch="http://www.bohemiancoding.com/sketch/ns">
    <!-- Generator: Sketch 3.0.4 (8054) - http://www.bohemiancoding.com/sketch -->
    <title>Slice 2</title>
    <desc>Created with Sketch.</desc>
    <defs></defs>
    <g id="Page-1" stroke="none" stroke-width="1" fill="none" fill-rule="evenodd" sketch:type="MSPage">
        <path d="M30.001,0.363 C13.729,0.363 0.487,13.603 0.487,29.878 C0.487,46.148 13.728,59.389 30.001,59.389 C46.274,59.389 59.512,46.148 59.512,29.878 C59.512,13.604 46.274,0.363 30.001,0.363 L30.001,0.363 L30.001,0.363 Z M4.68796055,29.8783062 C4.68796055,15.9152471 16.0424513,4.56185846 30.0011021,4.56185846 C43.9564467,4.56185846 55.3120394,15.9152471 55.3120394,29.8783062 C55.3120394,43.8358549 43.9575487,55.1881415 30.0011021,55.1881415 C16.0424513,55.1881415 4.68796055,43.8358549 4.68796055,29.8783062 L4.68796055,29.8783062 Z" id="Shape" fill="#FFE8E8" sketch:type="MSShapeGroup"></path>
        <path d="M14.6888973,29.843676 C14.6888973,21.4158585 21.5422361,14.5631849 29.9673928,14.5631849 C38.390554,14.5631849 45.244558,21.4158585 45.244558,29.843676 C45.244558,38.2681675 38.3912191,45.120176 29.9673928,45.120176 C21.5422361,45.120176 14.6888973,38.2681675 14.6888973,29.843676 L14.6888973,29.843676 Z" id="Shape-path" fill="#EC5C5C" sketch:type="MSShapeGroup"></path>
    </g>
</svg>