<?xml version="1.0" encoding="UTF-8" standalone="no"?>
<svg width="96px" height="96px" viewBox="0 0 96 96" version="1.1" xmlns="http://www.w3.org/2000/svg" xmlns:xlink="http://www.w3.org/1999/xlink" xmlns:sketch="http://www.bohemiancoding.com/sketch/ns">
    <!-- Generator: Sketch 3.0.4 (8054) - http://www.bohemiancoding.com/sketch -->
    <title>Slice 2</title>
    <desc>Created with Sketch.</desc>
    <defs></defs>
    <g id="Page-1" stroke="none" stroke-width="1" fill="none" fill-rule="evenodd" sketch:type="MSPage">
        <g id="github3" sketch:type="MSLayerGroup" fill="#FFFFFF">
            <path d="M48.0976351,47.6457242 C48.0669497,47.6457242 48.0320801,47.6443295 48,47.6429347 C47.9665251,47.6443295 47.9316555,47.6457242 47.9009702,47.6457242 C39.5922273,47.6457242 32.2709932,45.5423863 27.9443656,49.5147381 C25.3514576,51.8984281 24.2593398,54.7702934 24.2593398,57.862535 C24.2593398,70.7796524 34.6086553,72.3655246 47.8995754,72.3655246 L48.0976351,72.3655246 C61.3885552,72.3655246 71.7378707,70.7782576 71.7378707,57.862535 C71.7378707,54.7688987 70.6457529,51.8984281 68.0528448,49.5147381 C63.7262173,45.5423863 56.406378,47.6457242 48.0976351,47.6457242 L48.0976351,47.6457242 Z M36.7970752,65.2967468 C34.2683274,65.2967468 32.2179913,62.4569616 32.2179913,58.9546528 C32.2179913,55.452344 34.2683274,52.6139536 36.7970752,52.6139536 C39.325823,52.6139536 41.3789487,55.452344 41.3789487,58.9546528 C41.3789487,62.4569616 39.325823,65.2967468 36.7970752,65.2967468 L36.7970752,65.2967468 Z M59.20153,65.2967468 C56.6713874,65.2967468 54.6196565,62.4569616 54.6196565,58.9546528 C54.6196565,55.452344 56.6713874,52.6139536 59.20153,52.6139536 C61.7288831,52.6139536 63.7806139,55.452344 63.7806139,58.9546528 C63.7806139,62.4569616 61.7302779,65.2967468 59.20153,65.2967468 L59.20153,65.2967468 Z M48,0 C21.489,0 0,21.49 0,48 C0,74.51 21.489,96 48,96 C74.509,96 96,74.51 96,48 C96,21.49 74.509,0 48,0 L48,0 Z M54.1063751,75.4786879 C52.9068587,75.4786879 50.5217739,75.4814775 48,75.4842671 C45.4768313,75.4814775 43.0903517,75.4786879 41.8922301,75.4786879 C36.5878572,75.4786879 15.5823732,75.0728051 15.5823732,49.7518518 C15.5823732,43.9258288 17.5797074,39.6633614 20.8476921,36.1136298 C20.326042,34.8262419 20.299541,27.5147714 23.08214,20.5157329 C23.08214,20.5157329 29.4646828,21.2159157 39.1221842,27.8425462 C41.1460194,27.2832368 44.5730097,27.0042795 48,27.0042795 C51.4242007,27.0042795 54.8511911,27.281842 56.8778158,27.8425462 C66.5339224,21.2159157 72.9150704,20.5157329 72.9150704,20.5157329 C75.6976694,27.5147714 75.6725632,34.8262419 75.1509131,36.1136298 C78.4202926,39.6633614 80.4176268,43.9272236 80.4176268,49.7518518 C80.4176268,75.0728051 59.410748,75.4786879 54.1063751,75.4786879 L54.1063751,75.4786879 Z" id="Shape" sketch:type="MSShapeGroup"></path>
        </g>
    </g>
</svg>