<?xml version="1.0" encoding="UTF-8" standalone="no"?>
<svg width="29px" height="22px" viewBox="0 0 29 22" version="1.1" xmlns="http://www.w3.org/2000/svg" xmlns:xlink="http://www.w3.org/1999/xlink" xmlns:sketch="http://www.bohemiancoding.com/sketch/ns">
    <!-- Generator: Sketch 3.0.4 (8054) - http://www.bohemiancoding.com/sketch -->
    <title>Slice 2</title>
    <desc>Created with Sketch.</desc>
    <defs></defs>
    <g id="Page-1" stroke="none" stroke-width="1" fill="none" fill-rule="evenodd" sketch:type="MSPage">
        <g id="reddit1" sketch:type="MSLayerGroup" fill="#FFFFFF">
            <path d="M28.901,10.121 L28.901,10.304 C28.901,10.964 28.701,11.565 28.303,12.107 C27.929,12.626 27.461,13.022 26.898,13.298 C26.919,13.417 26.937,13.546 26.949,13.685 C26.962,13.825 26.97,13.963 26.97,14.11 C26.97,15.541 26.489,16.833 25.527,17.989 C24.683,19.023 23.662,19.855 22.459,20.487 C21.255,21.118 20,21.591 18.689,21.902 C17.979,22.048 17.273,22.164 16.566,22.255 C15.864,22.346 15.158,22.392 14.449,22.392 C13.367,22.392 12.302,22.297 11.255,22.11 C10.211,21.923 9.194,21.645 8.208,21.272 C7.174,20.875 6.193,20.363 5.268,19.739 C4.339,19.114 3.571,18.332 2.958,17.392 C2.633,16.901 2.387,16.371 2.218,15.806 C2.049,15.24 1.964,14.676 1.964,14.111 C1.964,13.99 1.972,13.862 1.983,13.722 C1.997,13.584 2.011,13.455 2.038,13.335 C1.448,13.01 0.99,12.61 0.667,12.144 C0.245,11.577 0.021,10.986 0,10.375 C0,9.93 0.097,9.507 0.297,9.102 C0.496,8.699 0.755,8.335 1.08,8.011 C1.428,7.687 1.81,7.434 2.227,7.254 C2.641,7.072 3.095,6.983 3.586,6.983 L3.623,6.983 L3.912,6.983 C4.406,6.983 4.874,7.056 5.317,7.2 C5.74,7.344 6.124,7.543 6.474,7.796 C6.52,7.772 6.575,7.747 6.636,7.724 C6.695,7.7 6.761,7.675 6.833,7.65 C7.87,7.086 8.976,6.675 10.161,6.415 C11.347,6.158 12.528,5.985 13.706,5.903 C13.706,5.359 13.755,4.814 13.852,4.261 C13.947,3.708 14.146,3.183 14.447,2.692 C14.687,2.269 15,1.912 15.386,1.616 C15.77,1.323 16.207,1.115 16.701,0.995 L16.737,0.995 C17.111,0.923 17.475,0.888 17.838,0.888 C18.802,0.888 19.776,1.084 20.761,1.483 C21.158,0.896 21.708,0.459 22.423,0.184 L22.456,0.184 C22.901,0.061 23.324,0 23.721,0 C24.215,0 24.648,0.085 25.019,0.254 L25.057,0.254 C25.644,0.47 26.138,0.837 26.536,1.354 C26.932,1.896 27.127,2.48 27.115,3.103 C27.115,3.249 27.101,3.357 27.079,3.43 C27.03,3.85 26.91,4.225 26.717,4.557 C26.524,4.887 26.278,5.179 25.977,5.43 C25.314,5.973 24.564,6.242 23.722,6.242 L23.309,6.242 C22.465,6.172 21.757,5.841 21.178,5.253 C20.902,4.976 20.68,4.665 20.513,4.323 C20.344,3.979 20.259,3.597 20.259,3.177 L20.259,3.067 C19.863,2.923 19.466,2.794 19.066,2.679 C18.671,2.567 18.26,2.507 17.841,2.507 L17.516,2.507 C16.83,2.578 16.349,2.888 16.073,3.429 C15.857,3.8 15.715,4.203 15.65,4.637 C15.584,5.071 15.547,5.503 15.547,5.936 C16.731,6.008 17.886,6.182 19.023,6.459 C20.16,6.733 21.248,7.144 22.278,7.686 L22.315,7.722 C22.362,7.722 22.413,7.745 22.46,7.794 C22.654,7.648 22.815,7.547 22.946,7.488 C23.557,7.09 24.262,6.898 25.058,6.909 C25.359,6.909 25.678,6.945 26.014,7.018 L26.05,7.018 C26.781,7.211 27.427,7.588 27.98,8.153 C28.52,8.707 28.829,9.365 28.901,10.121 L28.901,10.121 Z M4.885,8.822 C4.716,8.775 4.558,8.727 4.409,8.678 C4.259,8.629 4.092,8.607 3.913,8.607 L3.767,8.607 L3.733,8.607 C3.288,8.655 2.867,8.827 2.471,9.13 C2.119,9.452 1.931,9.833 1.892,10.267 L1.892,10.375 C1.892,10.675 1.977,10.921 2.146,11.115 C2.264,11.331 2.405,11.491 2.561,11.601 C2.835,11.06 3.17,10.56 3.559,10.102 C3.951,9.646 4.395,9.22 4.885,8.822 L4.885,8.822 Z M25.129,14.146 C25.129,13.652 25.042,13.178 24.867,12.719 C24.69,12.263 24.461,11.83 24.174,11.421 C23.556,10.625 22.81,9.972 21.917,9.452 C21.026,8.937 20.089,8.541 19.103,8.263 L18.525,8.118 L17.966,7.975 C17.403,7.853 16.821,7.763 16.225,7.703 C15.631,7.643 15.05,7.612 14.487,7.612 C12.861,7.612 11.309,7.831 9.831,8.262 C8.843,8.54 7.911,8.942 7.024,9.471 C6.14,10 5.385,10.66 4.761,11.454 C4.122,12.25 3.805,13.157 3.805,14.18 C3.805,14.577 3.852,14.919 3.949,15.209 C4.168,15.967 4.564,16.668 5.142,17.319 C5.708,17.884 6.353,18.4 7.087,18.869 L7.359,18.996 L7.613,19.142 C8.647,19.683 9.749,20.078 10.922,20.323 C12.094,20.57 13.282,20.693 14.486,20.693 L15.098,20.693 C15.299,20.693 15.507,20.683 15.71,20.656 C16.913,20.559 18.093,20.339 19.246,19.989 C20.4,19.641 21.471,19.135 22.457,18.474 C23.12,18.005 23.66,17.488 24.08,16.922 C24.575,16.309 24.899,15.653 25.056,14.955 C25.103,14.835 25.128,14.708 25.128,14.577 L25.128,14.146 L25.129,14.146 Z M9.415,14.325 C9.584,14.396 9.769,14.432 9.975,14.432 C10.443,14.432 10.866,14.276 11.238,13.962 C11.636,13.639 11.834,13.241 11.834,12.774 L11.834,12.736 L11.834,12.664 C11.834,12.221 11.647,11.842 11.275,11.529 C10.879,11.204 10.443,11.041 9.975,11.041 C9.83,11.041 9.708,11.052 9.616,11.078 C9.291,11.126 9.004,11.254 8.759,11.466 C8.51,11.676 8.341,11.932 8.243,12.234 C8.194,12.304 8.17,12.383 8.17,12.467 L8.17,12.703 C8.17,13.099 8.279,13.447 8.497,13.749 C8.736,14.038 9.041,14.229 9.415,14.325 L9.415,14.325 Z M19.518,16.509 C19.329,16.411 19.165,16.363 19.032,16.363 C18.889,16.363 18.735,16.399 18.581,16.473 C17.271,17.206 15.844,17.578 14.305,17.59 C13.151,17.59 12.08,17.368 11.094,16.923 C10.951,16.874 10.775,16.761 10.572,16.58 C10.523,16.556 10.47,16.534 10.411,16.509 C10.35,16.485 10.288,16.46 10.228,16.438 C10.085,16.389 9.976,16.363 9.903,16.363 C9.832,16.363 9.722,16.389 9.579,16.438 L9.539,16.438 C9.395,16.485 9.259,16.591 9.126,16.761 C9.055,16.881 9.019,17.032 9.019,17.212 C9.019,17.356 9.055,17.506 9.126,17.661 C9.198,17.783 9.308,17.879 9.452,17.95 C10.835,18.817 12.348,19.251 13.997,19.251 L14.266,19.251 C15.06,19.251 15.831,19.175 16.576,19.025 C17.322,18.875 18.046,18.636 18.743,18.313 C18.838,18.264 18.94,18.215 19.051,18.167 C19.158,18.12 19.273,18.06 19.391,17.988 C19.514,17.938 19.617,17.867 19.702,17.771 C19.82,17.652 19.891,17.524 19.917,17.39 C19.942,17.343 19.955,17.284 19.955,17.211 C19.955,17.14 19.93,17.03 19.879,16.886 C19.805,16.706 19.685,16.58 19.518,16.509 L19.518,16.509 Z M20.652,12.195 C20.727,12.388 20.762,12.569 20.762,12.736 C20.762,13.109 20.652,13.447 20.436,13.749 C20.137,14.072 19.83,14.265 19.517,14.325 L19.464,14.325 C19.271,14.396 19.102,14.432 18.959,14.432 C18.51,14.432 18.116,14.301 17.768,14.037 C17.418,13.819 17.207,13.501 17.133,13.079 L17.133,13.043 C17.112,12.972 17.1,12.867 17.1,12.735 C17.1,12.363 17.215,12.044 17.443,11.78 C17.659,11.479 17.943,11.27 18.291,11.147 C18.507,11.077 18.719,11.04 18.922,11.04 C19.296,11.04 19.65,11.138 19.987,11.33 C20.337,11.56 20.559,11.847 20.652,12.195 L20.652,12.195 Z M22.062,3.067 L22.062,3.138 C22.062,3.536 22.218,3.867 22.53,4.132 C22.859,4.407 23.217,4.546 23.613,4.546 L23.721,4.546 C24.119,4.546 24.473,4.407 24.786,4.132 C25.085,3.855 25.26,3.524 25.308,3.138 L25.308,3.067 C25.308,2.646 25.135,2.298 24.786,2.021 C24.485,1.719 24.119,1.576 23.684,1.589 C23.517,1.589 23.378,1.599 23.269,1.624 C22.92,1.695 22.639,1.865 22.424,2.128 C22.179,2.384 22.062,2.693 22.062,3.067 L22.062,3.067 Z M27.041,10.304 C27.041,10.086 26.978,9.851 26.86,9.599 C26.691,9.298 26.432,9.052 26.084,8.858 C25.735,8.691 25.38,8.607 25.019,8.607 C24.67,8.607 24.348,8.678 24.048,8.823 C24.54,9.22 24.986,9.646 25.38,10.103 C25.778,10.561 26.109,11.071 26.374,11.638 C26.543,11.492 26.691,11.318 26.826,11.116 C26.97,10.872 27.041,10.603 27.041,10.304 L27.041,10.304 Z" id="Shape" sketch:type="MSShapeGroup"></path>
        </g>
    </g>
</svg>