<?xml version="1.0" encoding="UTF-8" standalone="no"?>
<svg width="101px" height="94px" viewBox="0 0 101 94" version="1.1" xmlns="http://www.w3.org/2000/svg" xmlns:xlink="http://www.w3.org/1999/xlink" xmlns:sketch="http://www.bohemiancoding.com/sketch/ns">
    <!-- Generator: Sketch 3.0.4 (8054) - http://www.bohemiancoding.com/sketch -->
    <title>Slice 2</title>
    <desc>Created with Sketch.</desc>
    <defs></defs>
    <g id="Page-1" stroke="none" stroke-width="1" fill="none" fill-rule="evenodd" sketch:type="MSPage">
        <g id="Polygon-1-+-Shape-2" sketch:type="MSLayerGroup" transform="translate(-28.000000, -42.000000)" fill="#FFFFFF">
            <path d="M81.479961,104.883152 L72.1732695,95.5087879 C72.9735714,93.5347879 73.4316948,91.3813333 73.4316948,89.1224848 C73.4316948,86.8351515 72.9679156,84.6674545 72.1563019,82.6792121 L81.5195519,73.2393333 C84.0448864,74.7746667 86.9830974,75.6804848 90.1475422,75.6804848 C99.3778799,75.6804848 106.860562,68.1433939 106.860562,58.8402424 C106.860562,49.5370909 99.3750519,42 90.1447143,42 C80.9087208,42 73.4316948,49.5370909 73.4316948,58.8402424 C73.4316948,61.3839394 74.0001071,63.7909091 75.0125032,65.9557576 L65.949013,75.0851515 C63.2964221,73.3162424 60.1263214,72.2765455 56.7130195,72.2765455 C47.4883377,72.2765455 40,79.8136364 40,89.1224848 C40,98.4142424 47.4883377,105.95703 56.7130195,105.95703 C60.1376331,105.95703 63.3247013,104.911636 65.985776,103.131333 L74.9898799,112.206606 C74.0001071,114.348667 73.4316948,116.741394 73.4316948,119.268 C73.4316948,128.571152 80.9115487,136.108242 90.1447143,136.108242 C99.3750519,136.108242 106.857734,128.571152 106.857734,119.268 C106.860562,109.967697 99.3750519,102.436303 90.1447143,102.436303 C86.9689578,102.436303 84.0081234,103.342121 81.479961,104.883152 Z" id="Shape" sketch:type="MSShapeGroup"></path>
        </g>
    </g>
</svg>