<?xml version="1.0" encoding="UTF-8" standalone="no"?>
<svg width="60px" height="60px" viewBox="0 0 60 60" version="1.1" xmlns="http://www.w3.org/2000/svg" xmlns:xlink="http://www.w3.org/1999/xlink" xmlns:sketch="http://www.bohemiancoding.com/sketch/ns">
    <!-- Generator: Sketch 3.0.4 (8054) - http://www.bohemiancoding.com/sketch -->
    <title>Slice 2</title>
    <desc>Created with Sketch.</desc>
    <defs></defs>
    <g id="Page-1" stroke="none" stroke-width="1" fill="none" fill-rule="evenodd" sketch:type="MSPage">
        <g id="syncing" sketch:type="MSLayerGroup" fill="#FFFFFF">
            <g id="Page-1" sketch:type="MSShapeGroup">
                <g id="syncing">
                    <g id="Page-1">
                        <g id="information69">
                            <g id="Group" opacity="0.598938899">
                                <path d="M30.001,0.363 C13.729,0.363 0.487,13.603 0.487,29.878 C0.487,46.148 13.728,59.389 30.001,59.389 C46.274,59.389 59.512,46.148 59.512,29.878 C59.512,13.604 46.274,0.363 30.001,0.363 L30.001,0.363 L30.001,0.363 Z M4.68796055,29.8783062 C4.68796055,15.9152471 16.0424513,4.56185846 30.0011021,4.56185846 C43.9564467,4.56185846 55.3120394,15.9152471 55.3120394,29.8783062 C55.3120394,43.8358549 43.9575487,55.1881415 30.0011021,55.1881415 C16.0424513,55.1881415 4.68796055,43.8358549 4.68796055,29.8783062 L4.68796055,29.8783062 Z" id="Shape"></path>
                            </g>
                            <g id="Shape-+-Shape" transform="translate(13.000000, 12.000000)">
                                <path d="M16.753,2.59812096 L16.753,1.33612096 C16.753,0.829120956 16.466,0.367120956 16.013,0.141120956 C15.559,-0.0868790444 15.018,-0.0348790444 14.613,0.270120956 L8.532,4.86212096 C8.196,5.11412096 8,5.50912096 8,5.92812096 C8,6.34712096 8.196,6.74212096 8.532,6.99412096 L14.613,11.583121 C15.018,11.888121 15.559,11.937121 16.013,11.712121 C16.466,11.484121 16.753,11.022121 16.753,10.515121 L16.753,9.33712096 C21.894,9.83912096 26.071,13.675121 26.951,18.692121 C27.15,19.764121 28.074,20.538121 29.16,20.538121 L31.393,20.538121 C32.044,20.538121 32.667,20.261121 33.089,19.765121 C33.518,19.275121 33.705,18.619121 33.606,17.971121 C32.345,9.60712096 25.348,3.12012096 16.753,2.59812096 L16.753,2.59812096 L16.753,2.59812096 Z" id="Shape"></path>
                                <path d="M25.1017778,29.543 L19.0197778,24.955 C18.6157778,24.65 18.0737778,24.6 17.6197778,24.826 C17.1667778,25.053 16.8797778,25.515 16.8797778,26.022 L16.8797778,27.2 C11.7377778,26.698 7.56077785,22.862 6.68177785,17.845 C6.48277785,16.773 5.55977785,16 4.47377785,16 L2.23977785,16 C1.58777785,16 0.96577785,16.277 0.54377785,16.773 C0.11577785,17.263 -0.0732221501,17.918 0.0257778499,18.567 C1.28777785,26.931 8.28477785,33.418 16.8797778,33.939 L16.8797778,35.201 C16.8797778,35.708 17.1667778,36.172 17.6197778,36.397 C18.0737778,36.623 18.6157778,36.573 19.0197778,36.267 L25.1017778,31.675 C25.4357778,31.423 25.6327778,31.028 25.6327778,30.61 C25.6327778,30.192 25.4357778,29.795 25.1017778,29.543 L25.1017778,29.543 L25.1017778,29.543 Z" id="Shape"></path>
                            </g>
                        </g>
                    </g>
                </g>
            </g>
        </g>
    </g>
</svg>