<?xml version="1.0" encoding="UTF-8" standalone="no"?>
<svg width="440px" height="95px" viewBox="0 0 440 95" version="1.1" xmlns="http://www.w3.org/2000/svg" xmlns:xlink="http://www.w3.org/1999/xlink" xmlns:sketch="http://www.bohemiancoding.com/sketch/ns">
    <!-- Generator: Sketch 3.0.4 (8054) - http://www.bohemiancoding.com/sketch -->
    <title>A4 2</title>
    <desc>Created with Sketch.</desc>
    <defs></defs>
    <g id="Page-1" stroke="none" stroke-width="1" fill="none" fill-rule="evenodd" sketch:type="MSPage">
        <g id="A4-2" sketch:type="MSArtboardGroup" fill="#FFFFFF">
            <g id="Imported-Layers" sketch:type="MSLayerGroup">
                <path d="M79.1581538,62.0417857 L79.1581538,31.1933117 C81.1187692,30.4758766 82.5212308,28.595 82.5212308,26.3816234 C82.5212308,23.549513 80.2307692,21.2540909 77.4055385,21.2540909 C76.3150769,21.2540909 75.3064615,21.5989286 74.4756923,22.1818831 L45.8726154,5.62720779 C45.9021538,5.40327922 45.9230769,5.17688312 45.9230769,4.94431818 C45.9230769,2.11282468 43.6326154,-0.183214286 40.808,-0.183214286 C37.9827692,-0.183214286 35.6929231,2.11282468 35.6929231,4.94431818 C35.6929231,5.30211039 35.7298462,5.65064935 35.7987692,5.98746753 L8.13784615,21.9968182 C7.28246154,21.3527922 6.22276923,20.9660065 5.07076923,20.9660065 C2.24553846,20.9660065 -0.0443076923,23.2620455 -0.0443076923,26.093539 C-0.0443076923,28.2384416 1.27076923,30.0736688 3.13538462,30.8386039 L3.13538462,62.9276299 C1.27076923,63.6925649 -0.0443076923,65.5277922 -0.0443076923,67.6726948 C-0.0443076923,70.5041883 2.24553846,72.8002273 5.07076923,72.8002273 C6.21723077,72.8002273 7.272,72.4171429 8.12553846,71.7786688 L36.0596923,87.9459416 C36.0104615,88.2309416 35.9796923,88.5227273 35.9796923,88.8219156 C35.9796923,91.6534091 38.2695385,93.9494481 41.0947692,93.9494481 C43.92,93.9494481 46.2098462,91.6534091 46.2098462,88.8219156 C46.2098462,88.5418506 46.1815385,88.2691883 46.1384615,88.0008442 L74.992,71.3018182 C75.7766154,71.7922403 76.7003077,72.0809416 77.6929231,72.0809416 C80.5181538,72.0809416 82.808,69.7849026 82.808,66.9534091 C82.808,64.6320779 81.2689231,62.673474 79.1581538,62.0417857 L79.1581538,62.0417857 Z M53.0892308,62.1084091 C53.0916923,62.0448701 53.0990769,61.9819481 53.0990769,61.9177922 C53.0990769,60.1282143 52.1833846,58.5551623 50.7975385,57.6378571 L57.0941538,45.013961 C57.3396923,45.1021753 57.6,45.1583117 57.8756923,45.1583117 C58.512,45.1583117 59.0873846,44.9010714 59.5070769,44.486526 L68.8652308,51.8052273 C68.6929231,52.1303247 68.5864615,52.4961364 68.5864615,52.8897078 C68.5864615,54.1771429 69.6276923,55.2202922 70.9113846,55.2202922 C71.1409231,55.2202922 71.3581538,55.1771104 71.5673846,55.1148052 L75.1150769,62.5297403 C74.1046154,63.1225649 73.3181538,64.050974 72.904,65.1644481 L53.0892308,62.1084091 L53.0892308,62.1084091 Z M41.0947692,83.6937662 C40.528,83.6937662 39.9846154,83.79 39.4756923,83.9608766 L34.4092308,73.5916883 C34.8553846,73.1666558 35.1366154,72.5701299 35.1366154,71.9051299 C35.1366154,70.6176948 34.096,69.5739286 32.8116923,69.5739286 C31.7458462,69.5739286 30.8572308,70.2969156 30.5827692,71.2771429 L10.0978462,68.5998701 C10.1341538,68.4006169 10.1569231,68.1976623 10.1698462,67.9916234 L43.0873846,63.3976948 C43.4873846,64.7289286 44.4116923,65.8294481 45.6203077,66.4623701 L41.12,83.6956169 C41.1113846,83.6956169 41.1033846,83.6937662 41.0947692,83.6937662 L41.0947692,83.6937662 Z M32.5212308,20.7340584 C32.8024615,21.7044156 33.6855385,22.4175325 34.744,22.4175325 C35.3027692,22.4175325 35.8092308,22.2121104 36.2098462,21.8826948 L43.4049231,28.520974 C42.9587692,29.0841883 42.6313846,29.7430195 42.4523077,30.4623052 L10.1686154,26.441461 C10.176,26.3261039 10.1858462,26.2113636 10.1858462,26.093539 C10.1858462,25.713539 10.1415385,25.344026 10.0633846,24.9874675 L32.5212308,20.7340584 L32.5212308,20.7340584 Z M40.6935385,10.0662987 L45.1070769,27.1305195 C44.7021538,27.3359416 44.3298462,27.5931818 43.9963077,27.8936039 L36.7636923,21.2201623 C36.9526154,20.8833442 37.0689231,20.5008766 37.0689231,20.0869481 C37.0689231,19.2486039 36.6233846,18.5200649 35.9612308,18.1092208 L39.1415385,9.7887013 C39.6301538,9.95711039 40.1507692,10.053961 40.6935385,10.0662987 L40.6935385,10.0662987 Z M72.6215385,28.1816883 C72.7796923,28.6048701 72.9913846,29.0009091 73.2498462,29.3630195 L59.4036923,41.0831818 C58.9944615,40.7229221 58.464,40.4971429 57.8756923,40.4971429 C57.4812308,40.4971429 57.1150769,40.6050974 56.7895385,40.7790584 L51.3292308,34.997013 C52.0375385,34.1500325 52.4732308,33.070487 52.5156923,31.8897727 L72.6215385,28.1816883 L72.6215385,28.1816883 Z M30.1587692,47.0071104 L43.8867692,35.4158766 C44.6043077,36.1006169 45.5193846,36.5768506 46.5384615,36.7526623 L46.9193846,56.9031494 C45.9261538,57.1141234 45.0393846,57.6131818 44.3507692,58.3096429 L30.2935385,49.0224675 C30.4036923,48.7516558 30.4670769,48.4567857 30.4670769,48.1458766 C30.4670769,47.7300974 30.3495385,47.3451623 30.1587692,47.0071104 L30.1587692,47.0071104 Z M49.0726154,56.9093182 L48.6898462,36.6638312 C49.4498462,36.4670455 50.1409231,36.1037013 50.7212308,35.608961 L56.1156923,41.3212987 C55.7686154,41.7284416 55.5507692,42.2503247 55.5507692,42.8277273 C55.5507692,43.5266558 55.8646154,44.1466234 56.3507692,44.5741234 L50.0406154,57.2245455 C49.7329231,57.0888312 49.4092308,56.9821104 49.0726154,56.9093182 L49.0726154,56.9093182 Z M9.56615385,28.5413312 L42.3821538,32.6281818 C42.5261538,33.4214935 42.8523077,34.1487987 43.3156923,34.7693831 L29.6043077,46.3470455 C29.2036923,46.0194805 28.6990769,45.8152922 28.1421538,45.8152922 C27.2775385,45.8152922 26.5323077,46.2933766 26.1316923,46.9947727 L15.4990769,43.7037013 C15.5230769,43.5698377 15.5409231,43.4335065 15.5409231,43.2922403 C15.5409231,42.0054221 14.4996923,40.9616558 13.2153846,40.9616558 C13.0172308,40.9616558 12.8276923,40.9943506 12.6430769,41.0412338 L7.51815385,30.5967857 C8.38215385,30.1236364 9.09538462,29.4086688 9.56615385,28.5413312 L9.56615385,28.5413312 Z M13.2153846,45.6228247 C14.0523077,45.6228247 14.7796923,45.1762013 15.1895385,44.5112013 L25.8504615,47.8109091 C25.8344615,47.9213312 25.8166154,48.0311364 25.8166154,48.1458766 C25.8166154,49.4333117 26.8578462,50.476461 28.1421538,50.476461 C28.8061538,50.476461 29.4012308,50.1939286 29.8252308,49.7466883 L43.7969231,58.9777273 C43.336,59.6359416 43.0283077,60.4070455 42.9181538,61.2423052 L9.84984615,65.8572078 C9.33476923,64.494513 8.25907692,63.4118831 6.90215385,62.8893831 L12.6418462,45.5432468 C12.8264615,45.5901299 13.0166154,45.6228247 13.2153846,45.6228247 L13.2153846,45.6228247 Z M77.4356923,61.8388312 C76.8947692,61.865974 76.3766154,61.9757792 75.8923077,62.1589935 L72.3341538,54.7212338 C72.8793846,54.2943506 73.2363077,53.6367532 73.2363077,52.8897078 C73.2363077,51.6022727 72.1956923,50.5591234 70.9113846,50.5591234 C70.3323077,50.5591234 69.8092308,50.7787338 69.4024615,51.1303571 L59.9969231,43.774026 C60.1261538,43.4847078 60.2012308,43.1657792 60.2012308,42.8277273 C60.2012308,42.4427922 60.0990769,42.085 59.9341538,41.7648377 L73.8055385,30.0224675 C74.7298462,30.9410065 76.0012308,31.5091558 77.4055385,31.5091558 C77.416,31.5091558 77.4258462,31.5073052 77.4356923,31.5073052 L77.4356923,61.8388312 L77.4356923,61.8388312 Z M73.2153846,23.4458766 C72.6947692,24.1916883 72.3698462,25.0824675 72.3076923,26.0454221 L52.1433846,29.7639935 C51.3796923,27.8948377 49.5489231,26.5771753 47.4098462,26.5771753 C47.336,26.5771753 47.2633846,26.5851948 47.1901538,26.5882792 L42.8129231,9.66224026 C43.9027692,9.19649351 44.7956923,8.36061688 45.3415385,7.31376623 L73.2153846,23.4458766 L73.2153846,23.4458766 Z M38.352,9.44262987 L35.1581538,17.7983117 C35.0233846,17.7736364 34.8855385,17.7563636 34.744,17.7563636 C33.5335385,17.7563636 32.5507692,18.6866234 32.4406154,19.871039 L9.80553846,24.1577597 C9.68123077,23.8517857 9.528,23.5618506 9.35015385,23.2885714 L36.4430769,7.60863636 C36.9095385,8.37418831 37.5655385,9.01019481 38.352,9.44262987 L38.352,9.44262987 Z M4.85784615,31.2105844 C4.92861538,31.2136688 4.99876923,31.2210714 5.07076923,31.2210714 C5.65169231,31.2210714 6.208,31.1199026 6.728,30.9410065 L11.8627692,41.403961 C11.2763077,41.8271429 10.8904615,42.5131169 10.8904615,43.2922403 C10.8904615,44.069513 11.2738462,44.7530195 11.8572308,45.1762013 L6.07692308,62.6450974 C5.75138462,62.5803247 5.41538462,62.5451623 5.07076923,62.5451623 C4.99876923,62.5451623 4.92861538,62.5525649 4.85784615,62.5556494 L4.85784615,31.2105844 L4.85784615,31.2105844 Z M9.34276923,70.4893831 C9.55630769,70.1642857 9.73107692,69.8114286 9.86707692,69.4400649 L30.5101538,72.1383117 C30.6283077,73.3140909 31.6073846,74.2357143 32.8116923,74.2357143 C33.1193846,74.2357143 33.4123077,74.1721753 33.6812308,74.0636039 L38.6824615,84.3007792 C37.8307692,84.7585065 37.1255385,85.4518831 36.648,86.2926948 L9.34276923,70.4893831 L9.34276923,70.4893831 Z M43.2233846,84.1632143 L47.6978462,67.0305195 C47.7926154,67.0360714 47.8873846,67.0453247 47.984,67.0453247 C49.9858462,67.0453247 51.7150769,65.8892857 52.5550769,64.209513 L72.5950769,67.3000974 C72.6652308,68.3463312 73.0467692,69.3043506 73.6492308,70.0853247 L45.568,86.3377273 C45.04,85.384026 44.2172308,84.6203247 43.2233846,84.1632143 L43.2233846,84.1632143 Z" id="Fill-1" sketch:type="MSShapeGroup"></path>
                <path d="M132.352615,71.3530195 L132.352615,25.8288961 L116.254769,25.8288961 L116.254769,21.9795455 L152.733538,21.9795455 L152.733538,25.8288961 L136.635692,25.8288961 L136.635692,71.3530195 L132.352615,71.3530195" id="Fill-2" sketch:type="MSShapeGroup"></path>
                <path d="M188.476923,46.702987 C188.476923,32.268539 197.929231,21.1652597 212.401846,21.1652597 C226.801846,21.1652597 236.327385,32.268539 236.327385,46.702987 C236.327385,61.1374351 226.801846,72.2413312 212.401846,72.2413312 C197.929231,72.2413312 188.476923,61.1374351 188.476923,46.702987 L188.476923,46.702987 Z M231.896615,46.702987 C231.896615,34.1932143 224.216615,25.0146104 212.401846,25.0146104 C200.513231,25.0146104 192.907077,34.1932143 192.907077,46.702987 C192.907077,59.1387338 200.513231,68.3919805 212.401846,68.3919805 C224.216615,68.3919805 231.896615,59.1387338 231.896615,46.702987 L231.896615,46.702987 Z" id="Fill-3" sketch:type="MSShapeGroup"></path>
                <path d="M275.024,64.3945779 L277.756308,61.211461 C280.931077,64.8387338 286.100923,68.3919805 293.189538,68.3919805 C303.232,68.3919805 306.112,62.7660065 306.112,58.546526 C306.112,44.0380519 276.574769,51.5887013 276.574769,34.3412662 C276.574769,26.2730519 283.811077,21.1652597 292.746462,21.1652597 C300.057231,21.1652597 305.668923,23.7561688 309.435077,28.1237013 L306.628923,31.2327922 C303.084923,26.9392857 298.062769,25.0146104 292.524923,25.0146104 C285.953231,25.0146104 281.005538,28.7899351 281.005538,34.1191883 C281.005538,46.777013 310.542769,39.8191883 310.542769,58.2504221 C310.542769,64.6166558 306.333538,72.2413312 293.041846,72.2413312 C284.919385,72.2413312 278.790154,68.9101623 275.024,64.3945779" id="Fill-4" sketch:type="MSShapeGroup"></path>
                <path d="M387.120615,47.8874026 L355.884308,47.8874026 L355.884308,71.3530195 L351.676308,71.3530195 L351.676308,21.9795455 L355.884308,21.9795455 L355.884308,44.0380519 L387.120615,44.0380519 L387.120615,21.9795455 L391.329231,21.9795455 L391.329231,71.3530195 L387.120615,71.3530195 L387.120615,47.8874026 Z" id="Fill-5" sketch:type="MSShapeGroup"></path>
                <path d="M434.604308,21.9795455 L438.813538,21.9795455 L438.813538,71.3530195 L434.604308,71.3530195 L434.604308,21.9795455 Z" id="Fill-6" sketch:type="MSShapeGroup"></path>
            </g>
        </g>
    </g>
</svg>