<?xml version="1.0" encoding="UTF-8" standalone="no"?>
<svg width="902px" height="121px" viewBox="0 0 902 121" version="1.1" xmlns="http://www.w3.org/2000/svg" xmlns:xlink="http://www.w3.org/1999/xlink" xmlns:sketch="http://www.bohemiancoding.com/sketch/ns">
    <!-- Generator: Sketch 3.1 (8751) - http://www.bohemiancoding.com/sketch -->
    <title>Artboard 1</title>
    <desc>Created with Sketch.</desc>
    <defs></defs>
    <g id="Page-1" stroke="none" stroke-width="1" fill="none" fill-rule="evenodd" sketch:type="MSPage">
        <g id="Artboard-1" sketch:type="MSArtboardGroup" fill="#FFFFFF">
            <g id="TOSHI-EXPLORER-+-Fill-1" sketch:type="MSLayerGroup" transform="translate(4.000000, 2.000000)">
                <path d="M97.7849795,76.2937416 L97.7849795,38.381501 C100.200409,37.4997858 101.928207,35.188221 101.928207,32.4680194 C101.928207,28.9874048 99.1064152,26.1663708 95.6258006,26.1663708 C94.2823789,26.1663708 93.0397896,26.5901703 92.0163024,27.3066113 L56.778017,6.96120195 C56.8144076,6.68599761 56.8401843,6.40776072 56.8401843,6.12194244 C56.8401843,2.64208594 54.0183922,-0.179706198 50.5385357,-0.179706198 C47.057921,-0.179706198 44.2368871,2.64208594 44.2368871,6.12194244 C44.2368871,6.56166287 44.2823754,6.99001122 44.3672869,7.40395493 L10.2897118,27.0791697 C9.23589902,26.287673 7.93038423,25.81232 6.51114864,25.81232 C3.030534,25.81232 0.2095,28.6341121 0.2095,32.1139686 C0.2095,34.7500168 1.82964234,37.0054793 4.12680251,37.9455713 L4.12680251,77.3824287 C1.82964234,78.3225207 0.2095,80.5779832 0.2095,83.2140314 C0.2095,86.6938879 3.030534,89.51568 6.51114864,89.51568 C7.92356098,89.51568 9.22301066,89.0448759 10.274549,88.2602024 L44.6887377,108.129501 C44.6280866,108.479761 44.5901797,108.83836 44.5901797,109.206058 C44.5901797,112.685914 47.4112137,115.507706 50.8918283,115.507706 C54.3724429,115.507706 57.1934769,112.685914 57.1934769,109.206058 C57.1934769,108.861863 57.1586026,108.526765 57.1055329,108.196975 L92.6523807,87.6741612 C93.6190075,88.2768814 94.7569737,88.6316903 95.9798514,88.6316903 C99.460466,88.6316903 102.2815,85.8098982 102.2815,82.3300417 C102.2815,79.4771658 100.385395,77.0700756 97.7849795,76.2937416 L97.7849795,76.2937416 Z M65.6687092,76.3756205 C65.6717417,76.2975323 65.6808394,76.2202021 65.6808394,76.1413557 C65.6808394,73.9419954 64.552729,72.0087418 62.8454007,70.8813896 L70.6026756,55.3668398 C70.905173,55.4752537 71.2258656,55.5442443 71.5655117,55.5442443 C72.3494271,55.5442443 73.0582868,55.2281004 73.5753374,54.7186313 L85.1043521,63.7131885 C84.8920733,64.1127275 84.7609153,64.5623038 84.7609153,65.0459962 C84.7609153,66.6282316 86.0436859,67.9102441 87.6251632,67.9102441 C87.9079489,67.9102441 88.1755719,67.8571744 88.433339,67.7806024 L92.8040085,76.8934293 C91.5591448,77.6220005 90.5902436,78.7629992 90.0800162,80.1314395 L65.6687092,76.3756205 L65.6687092,76.3756205 Z M50.8918283,102.903651 C50.1935826,102.903651 49.5241461,103.02192 48.8971655,103.231925 L42.6554098,90.4883719 C43.2050603,89.9660144 43.5515297,89.2328943 43.5515297,88.4156208 C43.5515297,86.8333854 42.2695172,85.5506147 40.6872818,85.5506147 C39.3741856,85.5506147 38.2794334,86.4391533 37.9413035,87.6438356 L12.7043834,84.3535138 C12.7491136,84.108635 12.7771648,83.8592074 12.7930857,83.6059891 L53.3466813,77.9601304 C53.8394715,79.5961936 54.9781957,80.948713 56.4671801,81.7265633 L50.922912,102.905925 C50.9122981,102.905925 50.9024423,102.903651 50.8918283,102.903651 L50.8918283,102.903651 Z M40.3294403,25.5272599 C40.6759097,26.719812 41.7638387,27.5962203 43.0678372,27.5962203 C43.7562271,27.5962203 44.3801753,27.3437601 44.8737235,26.9389141 L53.7378809,35.0972443 C53.1882303,35.7894249 52.7849006,36.599117 52.5642822,37.4831067 L12.7915694,32.5415589 C12.8006671,32.3997869 12.8127973,32.2587731 12.8127973,32.1139686 C12.8127973,31.6469552 12.7582113,31.1928302 12.6619277,30.754626 L40.3294403,25.5272599 L40.3294403,25.5272599 Z M50.3975219,12.4167678 L55.8348924,33.3883997 C55.3360372,33.6408599 54.8773633,33.9570038 54.4664521,34.3262173 L45.5560483,26.1246731 C45.7887969,25.7107294 45.9320851,25.2406834 45.9320851,24.7319724 C45.9320851,23.7016619 45.3831927,22.8063002 44.5674355,22.3013798 L48.4854962,12.0756054 C49.0874583,12.2825773 49.7288436,12.4016051 50.3975219,12.4167678 L50.3975219,12.4167678 Z M89.7320306,34.680268 C89.9268722,35.2003512 90.1876719,35.6870762 90.5060902,36.1321036 L73.4479701,50.5359802 C72.9438078,50.0932272 72.2902923,49.8157485 71.5655117,49.8157485 C71.0795448,49.8157485 70.6284523,49.9484227 70.227397,50.1622178 L63.5004326,43.0561841 C64.3730502,42.0152597 64.9098123,40.688517 64.9621239,39.2374396 L89.7320306,34.680268 L89.7320306,34.680268 Z M37.418946,57.8163859 L54.3315035,43.5709602 C55.2154932,44.4124942 56.3428454,44.9977772 57.598323,45.2138467 L58.0676108,69.9784464 C56.843975,70.2377299 55.7514972,70.851064 54.90314,71.7070026 L37.5849784,60.2932249 C37.7206852,59.960402 37.7987735,59.5980118 37.7987735,59.2159099 C37.7987735,58.7049244 37.653969,58.2318459 37.418946,57.8163859 L37.418946,57.8163859 Z M60.720338,69.9860278 L60.2487758,45.1046748 C61.185077,44.8628285 62.0364668,44.4162849 62.7513915,43.8082576 L69.3972351,50.8286217 C68.9696449,51.3289933 68.7012638,51.9703786 68.7012638,52.6799964 C68.7012638,53.5389675 69.0879146,54.3008969 69.6868441,54.826287 L61.9128902,70.3734367 C61.5338208,70.2066462 61.1350399,70.0754882 60.720338,69.9860278 L60.720338,69.9860278 Z M12.0493516,35.1222629 L52.4778544,40.1449316 C52.6552589,41.1198979 53.0570724,42.0137434 53.6279508,42.7764309 L36.735863,57.0051775 C36.2423148,56.6026059 35.6206411,56.351662 34.9345256,56.351662 C33.8693407,56.351662 32.9512348,56.9392194 32.4576865,57.8012231 L19.3585666,53.7565533 C19.388134,53.5920372 19.41012,53.4244886 19.41012,53.2508748 C19.41012,51.6693975 18.1273494,50.3866269 16.5451139,50.3866269 C16.3009933,50.3866269 16.0674866,50.4268082 15.840045,50.4844268 L9.52626613,37.6483809 C10.5906928,37.0668886 11.4693755,36.1882059 12.0493516,35.1222629 L12.0493516,35.1222629 Z M16.5451139,56.1151227 C17.5761825,56.1151227 18.4723025,55.5662303 18.9772228,54.7489568 L32.1112171,58.8042406 C32.0915055,58.9399474 32.0695195,59.0748961 32.0695195,59.2159099 C32.0695195,60.7981453 33.3522902,62.0801578 34.9345256,62.0801578 C35.7525572,62.0801578 36.4856773,61.7329302 37.0080348,61.1832797 L54.2208152,72.5280668 C53.6529694,73.3370008 53.2739,74.2846741 53.1381932,75.3111939 L12.3988536,80.9828292 C11.7642915,79.3081009 10.4390651,77.9775676 8.76736932,77.3354241 L15.8385287,56.0173228 C16.0659703,56.0749413 16.3002352,56.1151227 16.5451139,56.1151227 L16.5451139,56.1151227 Z M95.6629494,76.0443139 C94.9965455,76.077672 94.3581927,76.2126207 93.7615376,76.4377879 L89.3779798,67.29691 C90.0496907,66.772278 90.4894111,65.9641022 90.4894111,65.0459962 C90.4894111,63.4637608 89.2073986,62.1817483 87.6251632,62.1817483 C86.9117547,62.1817483 86.2673368,62.4516457 85.7662072,62.8837848 L74.1788157,53.8429811 C74.3380249,53.4874141 74.4305178,53.0954564 74.4305178,52.6799964 C74.4305178,52.2069178 74.3046668,51.7671974 74.1014856,51.3737234 L91.1906894,36.9425538 C92.3294137,38.0714223 93.8957282,38.769668 95.6258006,38.769668 C95.638689,38.769668 95.6508192,38.7673936 95.6629494,38.7673936 L95.6629494,76.0443139 L95.6629494,76.0443139 Z M90.4636344,28.8600375 C89.8222491,29.7766271 89.4219519,30.8713794 89.3453799,32.0548338 L64.50345,36.6248937 C63.5625999,34.3277336 61.3071374,32.7083494 58.6718474,32.7083494 C58.5808707,32.7083494 58.4914104,32.7182052 58.4011918,32.7219959 L53.0085515,11.920187 C54.3512151,11.3477923 55.4512743,10.3205144 56.1237433,9.03395307 L90.4636344,28.8600375 L90.4636344,28.8600375 Z M47.5128043,11.6502896 L43.5780645,21.9192779 C43.4120322,21.8889524 43.2422091,21.8677245 43.0678372,21.8677245 C41.5765785,21.8677245 40.365831,23.0109976 40.2301242,24.4666239 L12.3442676,29.7349295 C12.1911236,29.3588927 12.002347,29.0025675 11.783245,28.6667121 L45.1610581,9.39634336 C45.7357272,10.3371934 46.543903,11.1188344 47.5128043,11.6502896 L47.5128043,11.6502896 Z M6.24883265,38.4027289 C6.3360186,38.4065196 6.42244641,38.4156173 6.51114864,38.4156173 C7.22683154,38.4156173 7.9121889,38.2912825 8.55281608,38.0714223 L14.8787251,50.9302123 C14.156219,51.4502955 13.680866,52.2933457 13.680866,53.2508748 C13.680866,54.2061295 14.1531864,55.0461472 14.8719019,55.5662303 L7.75070536,77.0352012 C7.34965001,76.9555966 6.93570629,76.9123827 6.51114864,76.9123827 C6.42244641,76.9123827 6.3360186,76.9214804 6.24883265,76.9252711 L6.24883265,38.4027289 L6.24883265,38.4027289 Z M11.7741473,86.6756925 C12.0372214,86.2761535 12.2525328,85.8424981 12.4200814,85.3860987 L37.8518432,88.7021972 C37.9974058,90.1472095 39.2036044,91.2798687 40.6872818,91.2798687 C41.0663511,91.2798687 41.4272251,91.2017804 41.7585317,91.068348 L47.9199247,103.649659 C46.8706608,104.212198 46.0018339,105.064346 45.4135183,106.097689 L11.7741473,86.6756925 L11.7741473,86.6756925 Z M53.51423,103.480594 L59.0266563,82.424809 C59.1434096,82.4316323 59.260163,82.4430043 59.3791907,82.4430043 C61.8454158,82.4430043 63.9757855,81.0222525 65.0106448,78.9578409 L89.6994306,82.7561156 C89.7858584,84.0419188 90.2559044,85.2193081 90.9981222,86.1791117 L56.4027383,106.153033 C55.7522553,104.980951 54.7386239,104.042375 53.51423,103.480594 L53.51423,103.480594 Z" id="Fill-1" sketch:type="MSShapeGroup"></path>
                <path d="M152.502,85 L152.502,34.57 L170.378,34.57 L170.378,30.306 L129.87,30.306 L129.87,34.57 L147.746,34.57 L147.746,85 L152.502,85 Z M212.194,85.984 C228.184,85.984 238.762,73.684 238.762,57.694 C238.762,41.704 228.184,29.404 212.194,29.404 C196.122,29.404 185.626,41.704 185.626,57.694 C185.626,73.684 196.122,85.984 212.194,85.984 L212.194,85.984 Z M212.194,81.72 C198.992,81.72 190.546,71.47 190.546,57.694 C190.546,43.836 198.992,33.668 212.194,33.668 C225.314,33.668 233.842,43.836 233.842,57.694 C233.842,71.47 225.314,81.72 212.194,81.72 L212.194,81.72 Z M277.298,85.984 C292.058,85.984 296.732,77.538 296.732,70.486 C296.732,50.068 263.932,57.776 263.932,43.754 C263.932,37.85 269.426,33.668 276.724,33.668 C282.874,33.668 288.45,35.8 292.386,40.556 L295.502,37.112 C291.32,32.274 285.088,29.404 276.97,29.404 C267.048,29.404 259.012,35.062 259.012,44 C259.012,63.106 291.812,54.742 291.812,70.814 C291.812,75.488 288.614,81.72 277.462,81.72 C269.59,81.72 263.85,77.784 260.324,73.766 L257.29,77.292 C261.472,82.294 268.278,85.984 277.298,85.984 L277.298,85.984 Z M362,85 L362,30.306 L357.326,30.306 L357.326,54.742 L322.64,54.742 L322.64,30.306 L317.966,30.306 L317.966,85 L322.64,85 L322.64,59.006 L357.326,59.006 L357.326,85 L362,85 Z M390.286,85 L390.286,30.306 L385.612,30.306 L385.612,85 L390.286,85 Z M479.822,85 L479.822,80.736 L449.81,80.736 L449.81,59.088 L479.248,59.088 L479.248,54.824 L449.81,54.824 L449.81,34.57 L479.822,34.57 L479.822,30.306 L445.136,30.306 L445.136,85 L479.822,85 Z M545.91,85 L523.934,56.874 L544.68,30.306 L538.776,30.306 L520.982,53.512 L503.27,30.306 L497.366,30.306 L518.112,56.956 L496.136,85 L501.958,85 L520.982,60.318 L540.088,85 L545.91,85 Z M568.948,85 L568.948,62.286 L584.774,62.286 C595.188,62.286 601.256,54.906 601.256,46.296 C601.256,37.686 595.27,30.306 584.774,30.306 L564.274,30.306 L564.274,85 L568.948,85 Z M584.282,58.022 L568.948,58.022 L568.948,34.57 L584.282,34.57 C591.58,34.57 596.336,39.408 596.336,46.296 C596.336,53.102 591.58,58.022 584.282,58.022 L584.282,58.022 Z M651.19,85 L651.19,80.736 L624.704,80.736 L624.704,30.306 L619.948,30.306 L619.948,85 L651.19,85 Z M692.268,85.984 C708.258,85.984 718.836,73.684 718.836,57.694 C718.836,41.704 708.258,29.404 692.268,29.404 C676.196,29.404 665.7,41.704 665.7,57.694 C665.7,73.684 676.196,85.984 692.268,85.984 L692.268,85.984 Z M692.268,81.72 C679.066,81.72 670.62,71.47 670.62,57.694 C670.62,43.836 679.066,33.668 692.268,33.668 C705.388,33.668 713.916,43.836 713.916,57.694 C713.916,71.47 705.388,81.72 692.268,81.72 L692.268,81.72 Z M778.118,85 L762.292,62.04 C770.492,61.712 777.462,56.218 777.462,46.296 C777.462,36.292 770.246,30.306 760.816,30.306 L740.398,30.306 L740.398,85 L745.072,85 L745.072,62.368 L757.126,62.368 L772.46,85 L778.118,85 Z M760.406,58.104 L745.072,58.104 L745.072,34.57 L760.406,34.57 C767.704,34.57 772.542,39.408 772.542,46.296 C772.542,53.184 767.704,58.104 760.406,58.104 L760.406,58.104 Z M833.792,85 L833.792,80.736 L803.78,80.736 L803.78,59.088 L833.218,59.088 L833.218,54.824 L803.78,54.824 L803.78,34.57 L833.792,34.57 L833.792,30.306 L799.106,30.306 L799.106,85 L833.792,85 Z M893.074,85 L877.248,62.04 C885.448,61.712 892.418,56.218 892.418,46.296 C892.418,36.292 885.202,30.306 875.772,30.306 L855.354,30.306 L855.354,85 L860.028,85 L860.028,62.368 L872.082,62.368 L887.416,85 L893.074,85 Z M875.362,58.104 L860.028,58.104 L860.028,34.57 L875.362,34.57 C882.66,34.57 887.498,39.408 887.498,46.296 C887.498,53.184 882.66,58.104 875.362,58.104 L875.362,58.104 Z" id="TOSHI-EXPLORER" sketch:type="MSShapeGroup"></path>
            </g>
        </g>
    </g>
</svg>