<?xml version="1.0" encoding="UTF-8" standalone="no"?>
<svg width="101px" height="94px" viewBox="0 0 101 94" version="1.1" xmlns="http://www.w3.org/2000/svg" xmlns:xlink="http://www.w3.org/1999/xlink" xmlns:sketch="http://www.bohemiancoding.com/sketch/ns">
    <!-- Generator: Sketch 3.0.4 (8054) - http://www.bohemiancoding.com/sketch -->
    <title>Slice 2</title>
    <desc>Created with Sketch.</desc>
    <defs></defs>
    <g id="Page-1" stroke="none" stroke-width="1" fill="none" fill-rule="evenodd" sketch:type="MSPage">
        <g id="Polygon-1-+-Shape-2" sketch:type="MSLayerGroup" transform="translate(-28.000000, -42.000000)" fill="#FFFFFF">
            <path d="M129.012625,55.7012308 C125.294562,57.3475385 121.305063,58.464 117.113563,58.9623077 C121.393438,56.4013846 124.669625,52.3392308 126.2225,47.5138462 C122.214062,49.8855385 117.776375,51.6075385 113.054625,52.5410769 C109.27975,48.5104615 103.895188,46 97.9361875,46 C86.491625,46 77.21225,55.2723077 77.21225,66.7018462 C77.21225,68.3229231 77.3953125,69.9061538 77.7488125,71.42 C60.5283125,70.5558462 45.258375,62.3116923 35.0384375,49.7846154 C33.252,52.8375385 32.2356875,56.3950769 32.2356875,60.1923077 C32.2356875,67.3767692 35.8969375,73.716 41.4519375,77.4249231 C38.0558125,77.3113846 34.8616875,76.3778462 32.06525,74.8261538 L32.06525,75.0847692 C32.06525,85.114 39.211,93.4843077 48.6860625,95.3892308 C46.950125,95.856 45.1195,96.1146154 43.22575,96.1146154 C41.8875,96.1146154 40.5934375,95.9821538 39.324625,95.7361538 C41.96325,103.961385 49.614,109.947385 58.67875,110.117692 C51.5898125,115.668462 42.6513125,118.973692 32.9426875,118.973692 C31.269875,118.973692 29.6223125,118.872769 28,118.689846 C37.1720625,124.568615 48.061125,128 59.7645,128 C97.879375,128 118.72325,96.4489231 118.72325,69.0861538 L118.653812,66.4053846 C122.719062,63.4975385 126.241437,59.8516923 129.012625,55.7012308 L129.012625,55.7012308 Z" id="Shape" sketch:type="MSShapeGroup"></path>
        </g>
    </g>
</svg>