<?xml version="1.0" encoding="UTF-8" standalone="no"?>
<svg width="48px" height="48px" viewBox="0 0 48 48" version="1.1" xmlns="http://www.w3.org/2000/svg" xmlns:xlink="http://www.w3.org/1999/xlink" xmlns:sketch="http://www.bohemiancoding.com/sketch/ns">
    <!-- Generator: Sketch 3.0.4 (8054) - http://www.bohemiancoding.com/sketch -->
    <title>Slice 2</title>
    <desc>Created with Sketch.</desc>
    <defs></defs>
    <g id="Page-1" stroke="none" stroke-width="1" fill="none" fill-rule="evenodd" sketch:type="MSPage">
        <g id="upload-6" sketch:type="MSLayerGroup" fill="#FFFFFF">
            <g id="Group" sketch:type="MSShapeGroup">
                <path d="M15.707,11.707 L24,3.414 L24,26 C24,26.552 24.448,27 25,27 C25.552,27 26,26.552 26,26 L26,3.414 L34.293,11.707 C34.488,11.902 34.744,12 35,12 C35.256,12 35.512,11.902 35.707,11.707 C36.098,11.316 36.098,10.684 35.707,10.293 L25.707,0.293 C25.615,0.201 25.504,0.128 25.382,0.077 C25.137,-0.025 24.862,-0.025 24.617,0.077 C24.495,0.128 24.384,0.201 24.292,0.293 L14.292,10.293 C13.901,10.684 13.901,11.316 14.292,11.707 C14.684,12.098 15.316,12.098 15.707,11.707 L15.707,11.707 Z" id="Shape" transform="translate(24.998750, 13.500500) scale(1, -1) translate(-24.998750, -13.500500) "></path>
                <path d="M47.923,32.618 C47.872,32.496 47.799,32.386 47.707,32.293 L39.707,24.293 C39.519,24.106 39.265,24 39,24 L34,24 C33.448,24 33,24.448 33,25 C33,25.552 33.448,26 34,26 L38.586,26 L44.586,32 L33,32 C32.448,32 32,32.448 32,33 L32,36 L16,36 L16,33 C16,32.448 15.552,32 15,32 L3.414,32 L9.414,26 L16,26 C16.552,26 17,25.552 17,25 C17,24.448 16.552,24 16,24 L9,24 C8.735,24 8.48,24.106 8.293,24.293 L0.293,32.293 C0.201,32.385 0.128,32.496 0.077,32.618 C0.026,32.74 0,32.871 0,33.001 L0,47 C0,47.552 0.448,48 1,48 L47,48 C47.552,48 48,47.552 48,47 L48,33.002 C48,32.871 47.974,32.74 47.923,32.618 L47.923,32.618 Z M46,46 L2,46 L2,34 L14,34 L14,37 C14,37.552 14.448,38 15,38 L33,38 C33.552,38 34,37.552 34,37 L34,34 L46,34 L46,46 L46,46 Z" id="Shape"></path>
            </g>
        </g>
    </g>
</svg>